<svg width="310" height="63" viewBox="0 0 310 63" fill="none" xmlns="http://www.w3.org/2000/svg">
<path d="M3.87488 14.5443H8.44215C11.2055 14.5443 12.1959 13.8854 12.1959 10.6347V7.08485C12.1959 3.76693 10.9633 3.01057 8.44215 3.01057H3.87488C0.931462 3.0072 0 4.16024 0 7.08485V10.6347C0 13.5593 1.05255 14.5443 3.87488 14.5443ZM1.0805 6.984C1.0805 4.76533 1.90639 4.15688 3.85936 4.15688H8.42663C10.5007 4.15688 11.1155 4.73171 11.1155 6.984V10.6314C11.1155 12.85 10.6187 13.3912 8.42663 13.3912H3.85936C1.83188 13.3912 1.0805 12.8164 1.0805 10.6314V6.984Z" fill="#3B75F2"/>
<path d="M15.006 9.16911H16.7913L23.5227 14.5443H25.4135L17.8749 8.58082L25.2334 3.14172H23.3426L16.7478 8.01943H15.006V3.14172H13.9224V14.5443H15.006V9.16911Z" fill="#3B75F2"/>
<path d="M29.9061 14.5443H34.4734C37.2367 14.5443 38.2272 13.8854 38.2272 10.6347V7.08484C38.2272 3.76692 36.9945 3.01056 34.4734 3.01056H29.9061C26.9627 3.01056 26.0312 4.16023 26.0312 7.08484V10.6347C26.0313 13.5593 27.0807 14.5443 29.9061 14.5443ZM27.1117 6.98399C27.1117 4.76532 27.9376 4.15687 29.8906 4.15687H34.4579C36.5319 4.15687 37.1467 4.73171 37.1467 6.98399V10.6313C37.1467 12.85 36.6499 13.3912 34.4579 13.3912H29.8906C27.8631 13.3912 27.1117 12.8164 27.1117 10.6313V6.98399Z" fill="#3B75F2"/>
<path d="M41.1427 9.23634H50.3952V14.5443H51.4757V3.14172H50.3952V8.08666H41.1427V3.14172H40.0591V14.5443H41.1427V9.23634Z" fill="#3B75F2"/>
<path d="M54.497 9.23634H63.7495V14.5443H64.8331V3.14172H63.7495V8.08666H54.497V3.14172H53.4165V14.5443H54.497V9.23634Z" fill="#3B75F2"/>
<path d="M77.4013 11.2231C77.4013 8.67495 76.3643 7.85471 73.75 7.85471H67.7856V3.14172H66.7051V14.5443H74.1412C76.622 14.5443 77.4013 13.5896 77.4013 11.2231ZM67.7887 9.00775H74.0667C75.7496 9.00775 76.3209 9.54897 76.3209 11.26C76.3209 13.0182 75.7061 13.3947 74.1723 13.3947H67.7887V9.00775Z" fill="#3B75F2"/>
<path d="M80.2704 3.14172H79.1899V14.5443H80.2704V3.14172Z" fill="#3B75F2"/>
<path d="M93.7112 14.5443V3.14172H91.6248L83.3782 13.6569H83.2882V3.14172H82.2046V14.5443H83.9619L92.224 4.02919H92.6307V14.5443H93.7112Z" fill="#3B75F2"/>
<path d="M86.9829 2.72802H88.2C91.1434 2.72802 91.3235 0.541567 91.3235 0H90.243C90.243 0.427199 90.0474 1.74243 88.1845 1.74243H86.9984C85.1355 1.74243 84.9399 0.427199 84.9399 0H83.8594C83.8563 0.706392 84.2941 2.72802 86.9829 2.72802Z" fill="#3B75F2"/>
<path d="M109.043 13.3946H104.476C102.492 13.3946 101.787 12.7693 101.787 11.3238H100.707C100.707 13.4585 101.713 14.5443 104.476 14.5443H109.059C111.853 14.5443 112.906 13.64 112.906 11.4213C112.906 9.74389 112.455 8.99088 111.434 8.59421C112.095 8.37907 112.682 7.87146 112.682 6.21082C112.682 4.32159 111.602 3.0072 108.913 3.0072H104.498C101.973 3.0072 100.713 4.05939 100.713 6.26125H101.793C101.793 4.98047 102.408 4.15688 104.482 4.15688H108.897C111.015 4.15688 111.602 4.74852 111.602 6.37554C111.602 7.70674 111.167 8.08325 109.77 8.08325H103.625V9.23292H110.068C111.434 9.23292 111.825 10.0868 111.825 11.1558C111.822 12.9509 111.114 13.3946 109.043 13.3946Z" fill="#3B75F2"/>
<path d="M116.334 11.6836H123.664L125.003 14.5443H126.263L120.854 3.14172H119.203L113.794 14.5443H114.996L116.334 11.6836ZM120.013 3.96196L123.109 10.5339H116.921L120.013 3.96196Z" fill="#3B75F2"/>
<path d="M139.322 11.1928C139.322 9.15566 138.061 8.61444 137.714 8.5304C138.21 8.36568 139.021 7.82446 139.021 6.06633C139.021 4.10987 137.878 3.14172 135.385 3.14172H127.635V14.5443H135.655C138.058 14.5443 139.322 13.7207 139.322 11.1928ZM128.716 4.2914H135.807C137.369 4.2914 137.94 4.95027 137.94 6.19743C137.94 7.64293 137.22 8.00598 135.807 8.00598H128.716V4.2914ZM128.716 9.15566H135.987C137.416 9.15566 138.242 9.68007 138.242 11.1928C138.242 12.7694 137.49 13.3947 136.077 13.3947H128.716V9.15566Z" fill="#3B75F2"/>
<path d="M153.117 10.6313V7.08484C153.117 3.76692 151.884 3.01056 149.363 3.01056H144.796C141.852 3.01056 140.921 4.16023 140.921 7.08484V10.6347C140.921 13.5593 141.973 14.5443 144.796 14.5443H149.363C152.126 14.5443 153.117 13.8854 153.117 10.6313ZM152.036 10.6313C152.036 12.85 151.54 13.3912 149.348 13.3912H144.78C142.753 13.3912 142.001 12.8164 142.001 10.6313V6.98399C142.001 4.76532 142.827 4.15687 144.78 4.15687H149.348C151.422 4.15687 152.036 4.73171 152.036 6.98399V10.6313Z" fill="#3B75F2"/>
<path d="M155.492 14.5443H166.502V17.6337H167.524V13.3947H166.667V3.14172H156.377V10.4701C156.377 11.8819 155.868 12.7391 155.026 13.3947H154.471V17.6337H155.492V14.5443ZM157.458 10.1574V4.2914H165.583V13.3947H156.315C157.16 12.7862 157.458 11.4382 157.458 10.1574Z" fill="#3B75F2"/>
<path d="M27.6582 27.8577H21.6255V49.9503H6.03277V27.8577H0V55.4331H24.9694V62.0689H30.4961V49.9503H27.6582V27.8577Z" fill="#3B75F2"/>
<path d="M33.7812 55.4331H59.5517V50.2293H39.814V43.9095H58.9338V39.1023H39.814V33.0615H59.5517V27.8577H33.7812V55.4331Z" fill="#3B75F2"/>
<path d="M84.6762 38.4267H69.0835V27.8577H63.0508V55.4331H69.0835V43.9095H84.6762V55.4331H90.709V27.8577H84.6762V38.4267Z" fill="#3B75F2"/>
<path d="M93.4287 33.3405H103.97V55.4331H110.003V33.3405H120.652V27.8577H93.4287V33.3405Z" fill="#3B75F2"/>
<path d="M140.371 27.8577H123.18V55.4331H129.212V47.2879H140.443C146.659 47.2879 149.239 44.5078 149.239 37.5123C149.242 30.5605 146.733 27.8577 140.371 27.8577ZM139.282 41.8051H129.212V33.3405H139.282C142.442 33.3405 143.206 34.8096 143.206 37.5123C143.206 40.4941 142.334 41.8051 139.282 41.8051Z" fill="#3B75F2"/>
<path d="M151.896 55.4331H157.932V33.3405H173.525V55.4331H179.558V27.8577H151.896V55.4331Z" fill="#3B75F2"/>
<path d="M185.69 44.6658C185.69 48.6796 185.109 49.9503 182.02 49.9503V55.4331H184.563C189.071 55.4331 191.723 52.4917 191.723 45.4188V33.3405H205.897V55.4331H211.929V27.8577H185.687V44.6658H185.69Z" fill="#3B75F2"/>
<path d="M227.609 27.8577L214.233 55.4331H221.285L224.557 48.4813H239.495L242.73 55.4331H249.818L236.551 27.8577H227.609ZM226.991 43.2741L231.972 33.0245H232.263L237.06 43.2741H226.991Z" fill="#3B75F2"/>
<path d="M269.286 49.9503H261.545C258.092 49.9503 256.674 49.1569 256.674 44.9448V38.1107C256.674 33.7809 257.509 33.0246 261.545 33.0246H269.286C272.775 33.0246 274.12 34.2549 274.12 37.156H280.153C280.153 29.4075 276.408 27.5418 270.447 27.5418H260.415C253 27.5418 250.638 29.8075 250.638 37.872V45.6978C250.638 53.0867 252.855 55.4331 259.834 55.4331H271.065C278.516 55.4331 280.153 53.248 280.187 45.8962H274.117C274.12 49.2343 272.884 49.9503 269.286 49.9503Z" fill="#3B75F2"/>
<path d="M282.776 27.8577V33.3405H293.317V55.4331H299.35V33.3405H310V27.8577H282.776Z" fill="#3B75F2"/>
</svg>
