<svg width="41" height="23" viewBox="0 0 41 23" fill="none" xmlns="http://www.w3.org/2000/svg">
<path fill-rule="evenodd" clip-rule="evenodd" d="M22.2 22.6C22.2 22.6 22.9 22.5 23.3 22.1C23.6 21.7 23.6 21.1 23.6 21.1C23.6 21.1 23.6 17.9 25.1 17.4C26.6 16.9 28.5 20.5 30.5 21.8C32 22.8 33.2 22.6 33.2 22.6L38.6 22.5C38.6 22.5 41.4 22.3 40.1 20.1C40 19.9 39.3 18.5 36.1 15.5C32.7 12.4 33.2 12.9 37.2 7.6C39.7 4.3 40.7 2.4 40.4 1.5C40.1 0.8 38.3 1 38.3 1H32.2C32.2 1 31.7 0.9 31.4 1.1C31.1 1.3 30.9 1.7 30.9 1.7C30.9 1.7 29.9 4.2 28.7 6.4C26 10.9 24.9 11.2 24.5 10.9C23.5 10.2 23.7 8.3 23.7 6.9C23.7 2.5 24.4 0.7 22.4 0.2C21.7 0.1 21.2 0 19.5 0C17.3 0 15.5 0 14.4 0.5C13.7 0.8 13.2 1.6 13.5 1.6C13.9 1.7 14.8 1.8 15.3 2.5C15.9 3.3 15.9 5.2 15.9 5.2C15.9 5.2 16.3 10.4 15.1 11C14.3 11.4 13.2 10.5 10.7 6.4C9.50001 4.4 8.50001 2 8.50001 2C8.50001 2 8.40001 1.6 8.00001 1.4C7.70001 1.1 7.10001 1 7.10001 1H1.30001C1.30001 1 0.400008 1 0.100008 1.4C-0.199992 1.7 0.100008 2.4 0.100008 2.4C0.100008 2.4 4.60001 12.8 9.80001 18C14.5 22.8 19.8 22.5 19.8 22.5H22.2V22.6Z" fill="#3b75f2"/>
</svg>
